<svg width="15" height="15" viewBox="0 0 15 15" fill="none" xmlns="http://www.w3.org/2000/svg">
<g clip-path="url(#clip0_2274_17792)">
<path fill-rule="evenodd" clip-rule="evenodd" d="M7.50013 0.78125C6.35775 0.78125 5.41331 0.881869 4.6865 1.00449L4.60222 1.01864C3.97083 1.12433 3.44604 1.21218 3.0357 1.71755C2.77255 2.04165 2.68765 2.39191 2.66807 2.78319L2.36054 2.8857C2.07108 2.98217 1.81738 3.06672 1.61611 3.16035C1.39851 3.26157 1.19911 3.39196 1.04666 3.60347C0.894227 3.81498 0.833595 4.04539 0.806377 4.28382C0.781202 4.50438 0.781227 4.7718 0.781252 5.0769L0.781258 5.16767C0.781252 5.4188 0.781245 5.64061 0.799783 5.82612C0.819877 6.02717 0.86437 6.22263 0.97552 6.4115C1.08667 6.60044 1.23593 6.73425 1.40192 6.84944C1.55508 6.95575 1.74898 7.06344 1.96851 7.18538L3.61924 8.1025C3.95636 8.76575 4.41947 9.35706 5.05636 9.78425C5.61076 10.1561 6.27613 10.3895 7.06425 10.4519C7.04294 10.5054 7.03125 10.5639 7.03125 10.625V11.7188H6.13738C5.61601 11.7188 5.16712 12.0868 5.06487 12.598L4.92822 13.2812H3.75C3.49112 13.2812 3.28125 13.4911 3.28125 13.75C3.28125 14.0089 3.49112 14.2188 3.75 14.2188H11.25C11.5089 14.2188 11.7188 14.0089 11.7188 13.75C11.7188 13.4911 11.5089 13.2812 11.25 13.2812H10.0718L9.93513 12.598C9.83288 12.0868 9.384 11.7188 8.86263 11.7188H7.96875V10.625C7.96875 10.5639 7.95706 10.5054 7.93575 10.4519C8.72394 10.3896 9.38938 10.1561 9.94381 9.78425C10.5808 9.35706 11.0439 8.76562 11.3811 8.10231L13.0314 7.18538C13.251 7.06344 13.4449 6.95575 13.5981 6.84944C13.7641 6.73425 13.9133 6.60044 14.0244 6.4115C14.1356 6.22263 14.1801 6.02717 14.2002 5.82612C14.2188 5.64062 14.2188 5.41883 14.2188 5.16771V5.07691C14.2188 4.7718 14.2188 4.50438 14.1936 4.28382C14.1664 4.04539 14.1058 3.81498 13.9533 3.60347C13.8009 3.39196 13.6014 3.26157 13.3839 3.16035C13.1826 3.06672 12.9289 2.98217 12.6394 2.8857L12.3321 2.78326C12.3126 2.39196 12.2277 2.04167 11.9645 1.71755C11.5541 1.21218 11.0294 1.12433 10.398 1.01864L10.3137 1.00449C9.58688 0.881869 8.64244 0.78125 7.50013 0.78125ZM9.11575 13.2812L9.01581 12.7819C9.00125 12.7088 8.93713 12.6562 8.86263 12.6562H6.13738C6.0629 12.6562 5.99878 12.7088 5.98417 12.7819L5.88429 13.2812H9.11575ZM2.68031 3.76732L2.68881 3.76449C2.73355 4.71467 2.84088 5.76485 3.10811 6.74606L2.44206 6.376C2.19884 6.24089 2.04655 6.15566 1.93643 6.07924C1.83493 6.00879 1.80186 5.96726 1.78352 5.93609C1.76518 5.90491 1.74492 5.85584 1.73263 5.73289C1.71931 5.59953 1.71876 5.42501 1.71876 5.14678V5.10144C1.71875 4.76452 1.71945 4.55119 1.73783 4.39014C1.75485 4.24106 1.7827 4.18564 1.80721 4.15163C1.83173 4.11761 1.8755 4.07366 2.01155 4.01038C2.15851 3.942 2.36068 3.87387 2.68031 3.76732ZM12.3114 3.76456C12.2666 4.71468 12.1593 5.76477 11.8921 6.74594L12.5579 6.376C12.8011 6.24089 12.9534 6.15566 13.0636 6.07924C13.1651 6.00879 13.1981 5.96726 13.2164 5.93609C13.2348 5.90491 13.2551 5.85584 13.2673 5.73289C13.2807 5.59953 13.2812 5.42501 13.2813 5.14678V5.10144C13.2813 4.76452 13.2805 4.55119 13.2621 4.39014C13.2451 4.24106 13.2173 4.18564 13.1928 4.15163C13.1683 4.11761 13.1245 4.07366 12.9884 4.01038C12.8414 3.942 12.6393 3.87387 12.3197 3.76732L12.3114 3.76456ZM4.84248 1.92893C5.52075 1.81449 6.413 1.71875 7.50013 1.71875C8.58719 1.71875 9.47944 1.81449 10.1578 1.92893C10.9121 2.0562 11.0705 2.10381 11.2367 2.30849C11.4004 2.5102 11.416 2.70098 11.3824 3.54795C11.3264 4.95961 11.1401 6.48294 10.5634 7.6415C10.2788 8.21338 9.90656 8.68044 9.42163 9.00562C8.93981 9.32881 8.31825 9.53125 7.50013 9.53125C6.68194 9.53125 6.06035 9.32881 5.57856 9.00562C5.09365 8.68044 4.72145 8.21338 4.43678 7.6415C3.86006 6.48294 3.67385 4.95961 3.6178 3.54795C3.58418 2.70098 3.59973 2.5102 3.76351 2.30849C3.9297 2.10381 4.08815 2.0562 4.84248 1.92893Z" fill="#2D283E"/>
</g>
<defs>
<clipPath id="clip0_2274_17792">
<rect width="15" height="15" fill="white"/>
</clipPath>
</defs>
</svg>
