<svg width="23" height="25" viewBox="0 0 23 25" fill="none" xmlns="http://www.w3.org/2000/svg">
  <path d="M5.35938 4.5498H17.6406C17.7496 4.5498 17.8503 4.57059 17.9473 4.61035L17.9551 4.61328L17.9619 4.61523C18.1258 4.67716 18.241 4.76771 18.3262 4.88477C18.4117 5.00267 18.4502 5.12258 18.4502 5.25879V19.7412C18.4502 19.8437 18.4286 19.9368 18.3818 20.0264L18.3262 20.1152C18.2409 20.2326 18.1255 20.323 17.9619 20.3848L17.9502 20.3887C17.8802 20.4169 17.7809 20.4385 17.6406 20.4385C17.4563 20.4385 17.3009 20.397 17.1631 20.3135L17.0303 20.2158L11.873 15.4609L11.5 15.1172L11.127 15.4609L5.96875 20.2158C5.7855 20.3767 5.59002 20.4502 5.35938 20.4502C5.25034 20.4502 5.14931 20.4303 5.05273 20.3906L5.04492 20.3877L5.03809 20.3848L4.92383 20.333C4.85343 20.2951 4.7939 20.2501 4.74316 20.1982L4.67383 20.1152C4.58821 19.9971 4.5498 19.8774 4.5498 19.7412V5.25879C4.5498 5.12254 4.58831 5.00256 4.67383 4.88477C4.75902 4.76754 4.87441 4.67701 5.03809 4.61523L5.04492 4.61328L5.05273 4.61035C5.14987 4.57049 5.25056 4.5498 5.35938 4.5498Z" fill="#7A5AF8"/>
</svg>