<svg width="15" height="15" viewBox="0 0 15 15" fill="none" xmlns="http://www.w3.org/2000/svg">
<path d="M4.82964 11.0552C4.82964 11.8527 4.18297 12.4993 3.38547 12.4993H2.31526C1.51776 12.4993 0.871094 11.8527 0.871094 11.0552V6.86018C0.871302 6.06268 1.51797 5.41602 2.31547 5.41602H3.38568C4.18318 5.41602 4.82984 6.06268 4.82984 6.86018L4.82964 11.0552ZM3.9963 6.86018C3.9963 6.52289 3.72276 6.24935 3.38547 6.24935H2.31526C1.97797 6.24935 1.70443 6.52289 1.70443 6.86018V11.0554C1.70464 11.3927 1.97818 11.666 2.31547 11.666H3.38568C3.72297 11.666 3.99651 11.3925 3.99651 11.0552L3.9963 6.86018Z" fill="#ffffff"/>
<path d="M9.6226 11.0558C9.6226 11.8533 8.97594 12.5 8.17844 12.5H7.10823C6.31073 12.5 5.66406 11.8533 5.66406 11.0558V4.56917C5.66406 3.77167 6.31073 3.125 7.10823 3.125H8.17844C8.97594 3.125 9.6226 3.77167 9.6226 4.56917V11.0558ZM8.78927 4.56917C8.78927 4.23187 8.51573 3.95833 8.17844 3.95833H7.10823C6.77094 3.95833 6.4974 4.23187 6.4974 4.56917V11.056C6.4974 11.3933 6.77094 11.6669 7.10823 11.6669H8.17844C8.51573 11.6669 8.78927 11.3933 8.78927 11.056V4.56917Z" fill="#ffffff"/>
<path d="M14.2046 11.0555C14.2046 11.853 13.558 12.4997 12.7605 12.4997H11.6903C10.8928 12.4997 10.2461 11.853 10.2461 11.0555V2.27717C10.2463 1.47967 10.893 0.833008 11.6905 0.833008H12.7607C13.5582 0.833008 14.2048 1.47967 14.2048 2.27717L14.2046 11.0555ZM13.3713 2.27717C13.3713 1.93988 13.098 1.66634 12.7607 1.66634H11.6905C11.3532 1.66634 11.0796 1.93988 11.0796 2.27717V11.0557C11.0796 11.393 11.3532 11.6665 11.6905 11.6665H12.7607C13.098 11.6665 13.3715 11.393 13.3715 11.0557L13.3713 2.27717Z" fill="#ffffff"/>
</svg>
