<svg width="32" height="32" viewBox="0 0 32 32" fill="none" xmlns="http://www.w3.org/2000/svg">
<g clip-path="url(#clip0_5285_7996)">
<path d="M31.609 29.7237L23.6504 21.765C25.8192 19.1125 26.8856 15.7278 26.6288 12.3111C26.3721 8.89442 24.812 5.70708 22.2712 3.4084C19.7303 1.10972 16.4032 -0.124434 12.9779 -0.038792C9.55263 0.0468505 6.29131 1.44574 3.86853 3.86853C1.44574 6.29131 0.0468505 9.55263 -0.038792 12.9779C-0.124434 16.4032 1.10972 19.7303 3.4084 22.2712C5.70708 24.812 8.89442 26.3721 12.3111 26.6288C15.7278 26.8856 19.1125 25.8192 21.765 23.6504L29.7237 31.609C29.9752 31.8519 30.312 31.9863 30.6616 31.9833C31.0112 31.9802 31.3456 31.84 31.5928 31.5928C31.84 31.3456 31.9802 31.0112 31.9833 30.6616C31.9863 30.312 31.8519 29.9752 31.609 29.7237ZM13.333 23.9997C11.2234 23.9997 9.16109 23.3741 7.40696 22.2021C5.65284 21.03 4.28566 19.3641 3.47833 17.415C2.67099 15.4659 2.45976 13.3212 2.87133 11.2521C3.28291 9.18295 4.29881 7.28233 5.79057 5.79057C7.28233 4.29881 9.18295 3.28291 11.2521 2.87133C13.3212 2.45976 15.4659 2.67099 17.415 3.47833C19.3641 4.28566 21.03 5.65284 22.2021 7.40696C23.3741 9.16109 23.9997 11.2234 23.9997 13.333C23.9965 16.161 22.8717 18.8723 20.872 20.872C18.8723 22.8717 16.161 23.9965 13.333 23.9997Z" fill="#2D283E"/>
</g>
<defs>
<clipPath id="clip0_5285_7996">
<rect width="32" height="32" fill="white"/>
</clipPath>
</defs>
</svg>
