<svg xmlns="http://www.w3.org/2000/svg" width="28" height="30" viewBox="0 0 28 30" fill="none">
<path d="M20.285 6.34475C20.7862 7.20194 21.7162 7.77778 22.7808 7.77778C24.3763 7.77778 25.6697 6.48438 25.6697 4.88889C25.6697 3.2934 24.3763 2 22.7808 2C21.1853 2 19.8919 3.2934 19.8919 4.88889C19.8919 5.4198 20.0351 5.91727 20.285 6.34475ZM20.285 6.34475L7.94325 13.5441M7.94325 13.5441C7.44214 12.6869 6.51206 12.1111 5.44748 12.1111C3.85199 12.1111 2.55859 13.4045 2.55859 15C2.55859 16.5955 3.85199 17.8889 5.44748 17.8889C6.51206 17.8889 7.44214 17.3131 7.94325 16.4559M7.94325 13.5441C8.19316 13.9716 8.33637 14.4691 8.33637 15C8.33637 15.5309 8.19316 16.0284 7.94325 16.4559M7.94325 16.4559L20.285 23.6552M20.285 23.6552C20.7862 22.7981 21.7162 22.2222 22.7808 22.2222C24.3763 22.2222 25.6697 23.5156 25.6697 25.1111C25.6697 26.7066 24.3763 28 22.7808 28C21.1853 28 19.8919 26.7066 19.8919 25.1111C19.8919 24.5802 20.0351 24.0827 20.285 23.6552Z" stroke="#7A5AF8" stroke-width="3.5" stroke-linecap="round" stroke-linejoin="round"/>
</svg>