<svg width="13" height="8" viewBox="0 0 13 8" fill="none" xmlns="http://www.w3.org/2000/svg">
<mask id="path-1-inside-1_2273_17775" fill="white">
<path d="M6.5 0C10.0899 0 13 2.6613 13 4C13 5.3387 10.0899 8 6.5 8C2.91015 8 0 5.3387 0 4C0 2.6613 2.91015 0 6.5 0ZM6.5 0.666667C5.05846 0.666667 3.61094 1.17002 2.43455 2.00276C1.44517 2.70314 0.8125 3.54514 0.8125 4C0.8125 4.45486 1.44517 5.29686 2.43455 5.99724C3.61094 6.82998 5.05846 7.33333 6.5 7.33333C7.94154 7.33333 9.38906 6.82998 10.5654 5.99724C11.5548 5.29686 12.1875 4.45486 12.1875 4C12.1875 3.54514 11.5548 2.70314 10.5654 2.00276C9.38906 1.17002 7.94154 0.666667 6.5 0.666667ZM6.5 2C7.84619 2 8.9375 2.89543 8.9375 4C8.9375 5.10457 7.84619 6 6.5 6C5.15381 6 4.0625 5.10457 4.0625 4C4.0625 2.89543 5.15381 2 6.5 2ZM6.5 2.66667C5.60254 2.66667 4.875 3.26362 4.875 4C4.875 4.73638 5.60254 5.33333 6.5 5.33333C7.39746 5.33333 8.125 4.73638 8.125 4C8.125 3.26362 7.39746 2.66667 6.5 2.66667Z"/>
</mask>
<path d="M2.43455 2.00276L4.74565 5.26755L2.43455 2.00276ZM2.43455 5.99724L4.74565 2.73245V2.73245L2.43455 5.99724ZM10.5654 5.99724L8.25435 2.73245V2.73245L10.5654 5.99724ZM10.5654 2.00276L8.25435 5.26755L10.5654 2.00276ZM6.5 4C7.32413 4 8.1577 4.31865 8.7851 4.76278C9.09381 4.98131 9.25156 5.16015 9.29132 5.21306C9.30985 5.23773 9.25974 5.17812 9.19462 5.02703C9.13674 4.89274 9 4.5318 9 4H17C17 2.38308 16.2143 1.10914 15.6871 0.407413C15.069 -0.415178 14.2748 -1.15267 13.4073 -1.7668C11.6821 -2.988 9.26572 -4 6.5 -4V4ZM9 4C9 3.4682 9.13674 3.10726 9.19462 2.97297C9.25974 2.82188 9.30985 2.76227 9.29132 2.78694C9.25156 2.83985 9.09381 3.01869 8.7851 3.23722C8.1577 3.68135 7.32413 4 6.5 4V12C9.26572 12 11.6821 10.988 13.4073 9.7668C14.2748 9.15267 15.069 8.41518 15.6871 7.59259C16.2143 6.89086 17 5.61692 17 4H9ZM6.5 4C5.67587 4 4.8423 3.68135 4.2149 3.23722C3.90619 3.01869 3.74844 2.83985 3.70868 2.78694C3.69015 2.76227 3.74026 2.82188 3.80538 2.97297C3.86326 3.10726 4 3.4682 4 4H-4C-4 5.61692 -3.21434 6.89086 -2.68708 7.59259C-2.069 8.41518 -1.27485 9.15267 -0.407289 9.7668C1.31785 10.988 3.73428 12 6.5 12V4ZM4 4C4 4.5318 3.86326 4.89274 3.80538 5.02703C3.74026 5.17812 3.69015 5.23773 3.70868 5.21306C3.74844 5.16015 3.90619 4.98131 4.2149 4.76278C4.8423 4.31865 5.67587 4 6.5 4V-4C3.73428 -4 1.31785 -2.988 -0.407289 -1.7668C-1.27485 -1.15267 -2.069 -0.415178 -2.68708 0.407413C-3.21434 1.10914 -4 2.38308 -4 4H4ZM6.5 -3.33333C4.15371 -3.33333 1.91 -2.52669 0.12346 -1.26203L4.74565 5.26755C5.31188 4.86672 5.9632 4.66667 6.5 4.66667V-3.33333ZM0.12346 -1.26203C-0.640881 -0.720961 -1.33414 -0.0813712 -1.87992 0.605901C-2.15189 0.948376 -2.43721 1.36542 -2.67079 1.84603C-2.87862 2.27365 -3.1875 3.03789 -3.1875 4H4.8125C4.8125 4.39491 4.74592 4.70565 4.69032 4.90204C4.63312 5.10405 4.56817 5.25301 4.52442 5.34302C4.47917 5.43611 4.44057 5.49901 4.41946 5.53152C4.40814 5.54894 4.39938 5.56142 4.39385 5.56908C4.38827 5.57679 4.38517 5.5807 4.38493 5.581C4.38484 5.58112 4.39319 5.57065 4.41151 5.55101C4.42962 5.5316 4.45487 5.50601 4.48761 5.47556C4.55412 5.41372 4.64103 5.34161 4.74565 5.26755L0.12346 -1.26203ZM-3.1875 4C-3.1875 4.96211 -2.87862 5.72635 -2.67079 6.15397C-2.43721 6.63458 -2.15189 7.05163 -1.87992 7.3941C-1.33414 8.08137 -0.640881 8.72096 0.12346 9.26203L4.74565 2.73245C4.64102 2.65839 4.55412 2.58628 4.48761 2.52444C4.45487 2.49399 4.42962 2.4684 4.41151 2.44899C4.39319 2.42935 4.38484 2.41888 4.38493 2.419C4.38517 2.41929 4.38827 2.42321 4.39385 2.43092C4.39938 2.43857 4.40814 2.45105 4.41946 2.46848C4.44057 2.50099 4.47917 2.56388 4.52442 2.65698C4.56817 2.74699 4.63312 2.89595 4.69032 3.09796C4.74592 3.29435 4.8125 3.60509 4.8125 4H-3.1875ZM0.12346 9.26203C1.91 10.5267 4.15371 11.3333 6.5 11.3333V3.33333C5.9632 3.33333 5.31188 3.13328 4.74565 2.73245L0.12346 9.26203ZM6.5 11.3333C8.84629 11.3333 11.09 10.5267 12.8765 9.26203L8.25435 2.73245C7.68812 3.13328 7.0368 3.33333 6.5 3.33333V11.3333ZM12.8765 9.26203C13.6409 8.72096 14.3341 8.08137 14.8799 7.3941C15.1519 7.05163 15.4372 6.63458 15.6708 6.15397C15.8786 5.72635 16.1875 4.96211 16.1875 4H8.1875C8.1875 3.60509 8.25408 3.29435 8.30968 3.09796C8.36688 2.89595 8.43183 2.74699 8.47558 2.65698C8.52083 2.56388 8.55943 2.50099 8.58054 2.46848C8.59186 2.45105 8.60062 2.43857 8.60615 2.43092C8.61173 2.42321 8.61483 2.41929 8.61507 2.419C8.61516 2.41888 8.60681 2.42935 8.58849 2.44899C8.57038 2.4684 8.54513 2.49399 8.51239 2.52444C8.44588 2.58628 8.35897 2.65839 8.25435 2.73245L12.8765 9.26203ZM16.1875 4C16.1875 3.03789 15.8786 2.27365 15.6708 1.84603C15.4372 1.36542 15.1519 0.948376 14.8799 0.605902C14.3341 -0.0813711 13.6409 -0.72096 12.8765 -1.26203L8.25435 5.26755C8.35897 5.34161 8.44588 5.41372 8.51239 5.47556C8.54513 5.50601 8.57038 5.5316 8.58849 5.55101C8.60681 5.57065 8.61516 5.58112 8.61506 5.581C8.61483 5.5807 8.61173 5.57679 8.60615 5.56908C8.60062 5.56142 8.59186 5.54894 8.58054 5.53152C8.55943 5.49901 8.52083 5.43611 8.47558 5.34302C8.43183 5.25301 8.36688 5.10405 8.30968 4.90204C8.25408 4.70565 8.1875 4.39491 8.1875 4H16.1875ZM12.8765 -1.26203C11.09 -2.52669 8.84629 -3.33333 6.5 -3.33333V4.66667C7.0368 4.66667 7.68812 4.86672 8.25435 5.26755L12.8765 -1.26203ZM6.5 6C6.30245 6 6.00165 5.93682 5.68631 5.67808C5.36266 5.41253 4.9375 4.83953 4.9375 4H12.9375C12.9375 -0.0173517 9.2789 -2 6.5 -2V6ZM4.9375 4C4.9375 3.16047 5.36266 2.58747 5.68631 2.32192C6.00165 2.06318 6.30245 2 6.5 2V10C9.2789 10 12.9375 8.01735 12.9375 4H4.9375ZM6.5 2C6.69755 2 6.99835 2.06318 7.31369 2.32192C7.63733 2.58747 8.0625 3.16047 8.0625 4H0.0624999C0.0624999 8.01735 3.72109 10 6.5 10V2ZM8.0625 4C8.0625 4.83953 7.63733 5.41253 7.31369 5.67808C6.99835 5.93682 6.69755 6 6.5 6V-2C3.72109 -2 0.0624999 -0.0173517 0.0624999 4H8.0625ZM6.5 -1.33333C4.16983 -1.33333 0.875 0.350838 0.875 4H8.875C8.875 5.02362 8.35889 5.76329 7.88822 6.14948C7.42584 6.52887 6.92191 6.66667 6.5 6.66667V-1.33333ZM0.875 4C0.875 7.64916 4.16983 9.33333 6.5 9.33333V1.33333C6.92191 1.33333 7.42584 1.47113 7.88822 1.85052C8.35889 2.23671 8.875 2.97638 8.875 4H0.875ZM6.5 9.33333C8.83017 9.33333 12.125 7.64916 12.125 4H4.125C4.125 2.97638 4.64111 2.23671 5.11178 1.85052C5.57416 1.47113 6.07809 1.33333 6.5 1.33333V9.33333ZM12.125 4C12.125 0.350838 8.83017 -1.33333 6.5 -1.33333V6.66667C6.07809 6.66667 5.57416 6.52887 5.11178 6.14948C4.64111 5.76329 4.125 5.02362 4.125 4H12.125Z" fill="#2D283E" mask="url(#path-1-inside-1_2273_17775)"/>
</svg>
